<svg xmlns="http://www.w3.org/2000/svg" xmlns:xlink="http://www.w3.org/1999/xlink" width="58" height="42" viewBox="0 0 58 42">
  <defs>
    <clipPath id="clip-path">
      <rect id="Rectangle_4" data-name="Rectangle 4" width="58" height="42" transform="translate(428 438)" fill="#beb38a"/>
    </clipPath>
  </defs>
  <g id="Groupe_de_masques_2" data-name="Groupe de masques 2" transform="translate(-428 -438)" clip-path="url(#clip-path)">
    <g id="_17-pirate_treasure" data-name="17-pirate treasure" transform="translate(434.645 437.323)">
      <path id="Tracé_35" data-name="Tracé 35" d="M43.355,8.806l-5.419,8.129H6.774L1.355,8.806h42Z" fill="#1e1613"/>
      <path id="Tracé_36" data-name="Tracé 36" d="M37.935,16.935H6.774L1.355,22.355H17.613V20.323a1.359,1.359,0,0,1,1.355-1.355h6.774A1.359,1.359,0,0,1,27.1,20.323v2.032H43.355Z" fill="#1e1613"/>
      <path id="Tracé_37" data-name="Tracé 37" d="M31.161,22.355H27.1V20.323a1.359,1.359,0,0,0-1.355-1.355H18.968a1.359,1.359,0,0,0-1.355,1.355v2.032H9.484a1.409,1.409,0,0,1-.339-.047,1.409,1.409,0,0,1-.339.047H6.1a1.355,1.355,0,0,1,0-2.71H7.452a1.355,1.355,0,1,1,0-2.71h3.387a1.355,1.355,0,0,1,0-2.71h1.355a1.355,1.355,0,0,1,0-2.71H14.9a1.355,1.355,0,1,1,0,2.71h1.355a1.391,1.391,0,0,1,.759.23,1.349,1.349,0,0,1,1.274-.908h1.355a1.355,1.355,0,0,1,0-2.71h2.71a1.355,1.355,0,1,1,0,2.71h5.419A1.359,1.359,0,0,1,29.129,14.9h.19a1.333,1.333,0,0,1,1.165-.677H35.9a1.355,1.355,0,1,1,0,2.71h4.065a1.355,1.355,0,1,1,0,2.71,1.355,1.355,0,0,1,0,2.71Z" fill="#ffc052"/>
      <path id="Tracé_38" data-name="Tracé 38" d="M38.444,32.516l.285-3.38.278-3.394.285-3.387h4.065L41.688,39.019a4.069,4.069,0,0,1-4.044,3.658H7.065a4.069,4.069,0,0,1-4.044-3.658L1.355,22.355H5.419L5.7,25.742l.224,2.723.447,5.358.244,2.926a2.032,2.032,0,0,0,2.025,1.863H36.066a2.032,2.032,0,0,0,2.026-1.863l.068-.826Z" fill="#5b5a61"/>
      <path id="Tracé_39" data-name="Tracé 39" d="M38.444,6.774C38,4.268,36.75,3.326,35.944,2.96a1.2,1.2,0,0,1-.7-.928,1.315,1.315,0,0,1-.014-.163A1.194,1.194,0,0,1,36.418.677h.163a6.24,6.24,0,0,1,4.783,2.29,8.886,8.886,0,0,1,1.992,5.839H38.613a11.23,11.23,0,0,0-.169-2.032Z" fill="#a8a5b3"/>
      <path id="Tracé_40" data-name="Tracé 40" d="M39.29,22.355l-.285,3.387H27.1V22.355H39.29Z" fill="#c0baba"/>
      <path id="Tracé_41" data-name="Tracé 41" d="M38.613,8.806H24.387V4.742c2.71,0,6.774,0,9.4.007a3.112,3.112,0,0,1,.759.047c.237.061.44.21.42.373-.014.115-.135.217-.264.3-.454.3-1.07.467-1.565.738-.1.054-.21.135-.163.224a.339.339,0,0,0,.176.095,5.026,5.026,0,0,0,1.246.156c1.87.081,2.168.095,4.044.095a11.23,11.23,0,0,1,.169,2.032Z" fill="#d69250"/>
      <path id="Tracé_42" data-name="Tracé 42" d="M35.944,2.96c.806.366,2.059,1.307,2.5,3.814-1.876,0-2.175-.014-4.044-.095a5.026,5.026,0,0,1-1.246-.156.339.339,0,0,1-.176-.095c-.047-.088.061-.169.163-.224.495-.271,1.111-.44,1.565-.738.129-.081.251-.183.264-.3.02-.163-.183-.312-.42-.373a3.112,3.112,0,0,0-.759-.047c-2.628-.007-6.693-.007-9.4-.007V2.032H35.239a1.2,1.2,0,0,0,.7.928Z" fill="#9b6244"/>
      <path id="Tracé_43" data-name="Tracé 43" d="M27.1,25.742V27.1a1.359,1.359,0,0,1-1.355,1.355H18.968A1.359,1.359,0,0,1,17.613,27.1V20.323a1.359,1.359,0,0,1,1.355-1.355h6.774A1.359,1.359,0,0,1,27.1,20.323Zm-2.032.677V21H19.645v5.419Z" fill="#545359"/>
      <path id="Tracé_44" data-name="Tracé 44" d="M19.645,21h5.419v5.419H19.645Z" fill="#443a38"/>
      <path id="Tracé_45" data-name="Tracé 45" d="M20.323,4.065V2.032h4.065V8.806H20.323Z" fill="#c0baba"/>
      <path id="Tracé_46" data-name="Tracé 46" d="M20.323,4.065V8.806H6.1a11.229,11.229,0,0,1,.169-2.032c1.951,0,3.529-.02,5.4-.122a4.043,4.043,0,0,0,1.246-.21.355.355,0,0,0,.176-.135c.047-.108-.061-.217-.163-.291-.495-.366-1.111-.589-1.565-.982a.648.648,0,0,1-.264-.4.553.553,0,0,1,.42-.5,2.351,2.351,0,0,1,.759-.061c2.412-.007,5.467-.007,8.048-.007Z" fill="#9b6244"/>
      <path id="Tracé_47" data-name="Tracé 47" d="M20.323,2.032V4.065c-2.581,0-5.636,0-8.048.007a2.351,2.351,0,0,0-.759.061.553.553,0,0,0-.42.5.648.648,0,0,0,.264.4c.454.393,1.07.616,1.565.982.1.075.21.183.163.291a.355.355,0,0,1-.176.135,4.043,4.043,0,0,1-1.246.21c-1.87.1-3.448.122-5.4.122.44-2.506,1.694-3.448,2.5-3.814a1.2,1.2,0,0,0,.7-.928Z" fill="#d69250"/>
      <path id="Tracé_48" data-name="Tracé 48" d="M17.613,22.355v3.387H5.7l-.285-3.387H17.613Z" fill="#c0baba"/>
      <path id="Tracé_49" data-name="Tracé 49" d="M39.006,25.742l-.278,3.394-.115-.007a48.2,48.2,0,0,0-8.935.834.683.683,0,0,0-.481.243.911.911,0,0,0-.054.488,2.62,2.62,0,0,1-1.226,2.025,10.7,10.7,0,0,1-5.026,1.687,28.2,28.2,0,0,0-5.284.867,6.305,6.305,0,0,0-4.058,3.34h-4.9A2.032,2.032,0,0,1,6.618,36.75l-.244-2.926a39.717,39.717,0,0,0,8.339-2.161,4.762,4.762,0,0,0,1.423-.779.288.288,0,0,0,.115-.156c.034-.142-.122-.251-.251-.312-3.062-1.423-6.727-.826-9.9-1.965l-.169.014L5.7,25.742H17.613V27.1a1.359,1.359,0,0,0,1.355,1.355h6.774A1.359,1.359,0,0,0,27.1,27.1V25.742Z" fill="#d69250"/>
      <path id="Tracé_50" data-name="Tracé 50" d="M38.728,29.136l-.285,3.38a15.269,15.269,0,0,0-7.485,1.66c-.007.007-.02.014-.027.02a.8.8,0,0,0,.318,1.524h.014c2.391.183,4.254.183,6.645.183l.251.02-.068.826a2.032,2.032,0,0,1-2.025,1.863H13.548a6.305,6.305,0,0,1,4.058-3.34,28.2,28.2,0,0,1,5.284-.867,10.7,10.7,0,0,0,5.026-1.687,2.62,2.62,0,0,0,1.226-2.025.911.911,0,0,1,.054-.488.683.683,0,0,1,.488-.244,48.183,48.183,0,0,1,8.928-.833Z" fill="#9b6244"/>
      <path id="Tracé_51" data-name="Tracé 51" d="M38.444,32.516l-.285,3.407-.251-.02c-2.391,0-4.254,0-6.645-.183h-.014a.8.8,0,0,1-.318-1.524c.007-.007.02-.014.027-.02A15.269,15.269,0,0,1,38.444,32.516Z" fill="#d69250"/>
      <path id="Tracé_52" data-name="Tracé 52" d="M16,30.416c.129.061.285.169.251.312a.288.288,0,0,1-.115.156,4.762,4.762,0,0,1-1.423.779,39.717,39.717,0,0,1-8.339,2.161l-.447-5.358.169-.014C9.274,29.59,12.939,28.994,16,30.416Z" fill="#9b6244"/>
      <path id="Tracé_53" data-name="Tracé 53" d="M6.266,6.774A11.229,11.229,0,0,0,6.1,8.806H1.355A8.886,8.886,0,0,1,3.346,2.967,6.24,6.24,0,0,1,8.129.677h.163A1.194,1.194,0,0,1,9.484,1.87a1.316,1.316,0,0,1-.014.163,1.2,1.2,0,0,1-.7.928C7.96,3.326,6.706,4.268,6.266,6.774Z" fill="#a8a5b3"/>
      <path id="Tracé_54" data-name="Tracé 54" d="M39.968,19.645a1.355,1.355,0,1,0,0-2.71H35.9a1.355,1.355,0,1,0,0-2.71H30.484a1.333,1.333,0,0,0-1.165.677h-.19a1.359,1.359,0,0,0-1.355-1.355H22.355a1.355,1.355,0,1,0,0-2.71h-2.71a1.355,1.355,0,0,0,0,2.71H18.29a1.349,1.349,0,0,0-1.274.908,1.391,1.391,0,0,0-.759-.23H14.9a1.355,1.355,0,1,0,0-2.71h-2.71a1.355,1.355,0,0,0,0,2.71H10.839a1.355,1.355,0,0,0,0,2.71H7.452a1.355,1.355,0,1,0,0,2.71H6.1a1.355,1.355,0,0,0,0,2.71h.189a1.338,1.338,0,0,1-.189-.677,1.359,1.359,0,0,1,1.355-1.355h3.387a1.355,1.355,0,1,1,0-2.71h1.355a1.355,1.355,0,0,1,0-2.71H14.9a1.355,1.355,0,0,1,0,2.71h1.355a1.391,1.391,0,0,1,.759.23,1.349,1.349,0,0,1,1.274-.908h1.355a1.355,1.355,0,0,1,0-2.71h2.71a1.355,1.355,0,1,1,0,2.71h5.419a1.359,1.359,0,0,1,1.355,1.355h.19a1.333,1.333,0,0,1,1.165-.677H35.9a1.355,1.355,0,1,1,0,2.71h4.065a1.355,1.355,0,0,1,1.307,1.016A1.332,1.332,0,0,0,41.323,21a1.359,1.359,0,0,0-1.355-1.355Z" fill="#ffdf75"/>
      <path id="Tracé_55" data-name="Tracé 55" d="M18.968,27.1h6.774V20.323H18.968Zm.677-6.1h5.419v5.419H19.645Z" fill="#323236"/>
      <path id="Tracé_56" data-name="Tracé 56" d="M28.452,23.032v-.677H27.1v3.387H39.006l.114-1.355H29.806A1.355,1.355,0,0,1,28.452,23.032Z" fill="#7d7b85"/>
      <path id="Tracé_57" data-name="Tracé 57" d="M14.9,24.387H5.59L5.7,25.742H17.613V22.355H16.258v.677A1.355,1.355,0,0,1,14.9,24.387Z" fill="#7d7b85"/>
      <path id="Tracé_58" data-name="Tracé 58" d="M4.22,25.573l.941,11.289a3.387,3.387,0,0,0,3.375,3.106H36.174a3.387,3.387,0,0,0,3.376-3.106l.941-11.288a2.032,2.032,0,0,1,2.024-1.864h.7l.135-1.355H39.29l-.285,3.387-.278,3.394-.285,3.38-.285,3.407-.068.826a2.032,2.032,0,0,1-2.025,1.863H8.644A2.032,2.032,0,0,1,6.618,36.75l-.244-2.926-.447-5.358L5.7,25.742l-.285-3.387H1.355L1.49,23.71h.7A2.032,2.032,0,0,1,4.22,25.573Z" fill="#3c3b40"/>
      <g id="Groupe_10" data-name="Groupe 10">
        <path id="Tracé_59" data-name="Tracé 59" d="M7.569,28.858,7.452,27.1H17.613V25.742H5.7l.224,2.723.169-.014A11.3,11.3,0,0,0,7.569,28.858Z" fill="#bd722a"/>
        <path id="Tracé_60" data-name="Tracé 60" d="M9.4,37.258a1.355,1.355,0,0,1-1.355-1.265l-.163-2.439c-.5.094-1.01.19-1.507.271l.244,2.926a2.032,2.032,0,0,0,2.029,1.861h4.9a4.445,4.445,0,0,1,.856-1.355Z" fill="#bd722a"/>
        <path id="Tracé_61" data-name="Tracé 61" d="M18.968,29.806h6.774A1.355,1.355,0,0,0,27.1,28.452V27.1a1.359,1.359,0,0,1-1.355,1.355H18.968A1.359,1.359,0,0,1,17.613,27.1v1.355A1.355,1.355,0,0,0,18.968,29.806Z" fill="#bd722a"/>
        <path id="Tracé_62" data-name="Tracé 62" d="M27.1,25.742V27.1H37.258l-.135,2.067c.5-.016.992-.035,1.49-.035l.115.007.278-3.394Z" fill="#bd722a"/>
      </g>
      <path id="Tracé_63" data-name="Tracé 63" d="M36.671,35.9l-.006.091a1.355,1.355,0,0,1-1.355,1.265H14.4a4.445,4.445,0,0,0-.856,1.353H36.066a2.032,2.032,0,0,0,2.026-1.863l.068-.826-.251-.02Z" fill="#734832"/>
      <path id="Tracé_64" data-name="Tracé 64" d="M37.123,29.164l-.228,3.411c.506-.034,1.02-.056,1.551-.058l.285-3.38-.117-.007c-.5,0-1,.019-1.49.035Z" fill="#734832"/>
      <path id="Tracé_65" data-name="Tracé 65" d="M36.671,35.9h1.238l.251.02.285-3.407c-.53,0-1.045.024-1.551.058Z" fill="#bd722a"/>
      <path id="Tracé_66" data-name="Tracé 66" d="M7.569,28.858A11.3,11.3,0,0,1,6.1,28.452l-.169.014.447,5.358c.5-.08,1-.176,1.507-.271Z" fill="#734832"/>
      <path id="Tracé_67" data-name="Tracé 67" d="M37.06,6.768a9.72,9.72,0,0,1,.2,2.038h1.355a11.23,11.23,0,0,0-.169-2.032C37.858,6.774,37.433,6.774,37.06,6.768Z" fill="#bd722a"/>
      <path id="Tracé_68" data-name="Tracé 68" d="M34.735,3.582A4,4,0,0,1,37.06,6.766c.373.008.8.008,1.384.008C38,4.268,36.75,3.326,35.944,2.96a1.2,1.2,0,0,1-.7-.928H33.871v.289a1.355,1.355,0,0,0,.864,1.261Z" fill="#734832"/>
      <path id="Tracé_69" data-name="Tracé 69" d="M6.266,6.774A11.229,11.229,0,0,0,6.1,8.806H7.452a9.712,9.712,0,0,1,.2-2.037C7.2,6.774,6.747,6.774,6.266,6.774Z" fill="#734832"/>
      <path id="Tracé_70" data-name="Tracé 70" d="M9.974,3.582a1.355,1.355,0,0,0,.864-1.261V2.032H9.47a1.2,1.2,0,0,1-.7.928c-.806.366-2.059,1.307-2.5,3.814.481,0,.938,0,1.384,0A4.007,4.007,0,0,1,9.974,3.582Z" fill="#bd722a"/>
      <path id="Tracé_71" data-name="Tracé 71" d="M41.323,7.452A1.355,1.355,0,0,1,39.968,6.1,4.065,4.065,0,0,0,35.9,2.032a.671.671,0,0,1-.634-.463,1.164,1.164,0,0,0-.043.3,1.316,1.316,0,0,0,.014.163,1.2,1.2,0,0,0,.7.928c.806.366,2.059,1.307,2.5,3.814a11.23,11.23,0,0,1,.169,2.032h4.742a10.485,10.485,0,0,0-.094-1.355Z" fill="#7d7b85"/>
      <path id="Tracé_72" data-name="Tracé 72" d="M8.806,2.032A4.065,4.065,0,0,0,4.742,6.1,1.355,1.355,0,0,1,3.387,7.452H1.449a10.485,10.485,0,0,0-.094,1.355H6.1a11.229,11.229,0,0,1,.169-2.032c.44-2.506,1.694-3.448,2.5-3.814a1.2,1.2,0,0,0,.7-.928,1.315,1.315,0,0,0,.014-.163,1.164,1.164,0,0,0-.043-.3.671.671,0,0,1-.634.463Z" fill="#7d7b85"/>
      <rect id="Rectangle_5" data-name="Rectangle 5" width="1.355" height="2.71" rx="0.677" transform="translate(21.677 22.355)" fill="#ffaf3f"/>
      <rect id="Rectangle_6" data-name="Rectangle 6" width="17.613" height="2.71" rx="1.355" transform="translate(10.161 39.968)" fill="#67666e"/>
      <rect id="Rectangle_7" data-name="Rectangle 7" width="4.065" height="2.71" rx="1.355" transform="translate(29.806 39.968)" fill="#67666e"/>
      <circle id="Ellipse_1" data-name="Ellipse 1" cx="0.677" cy="0.677" r="0.677" transform="translate(40.645 23.71)" fill="#ffaf3f"/>
      <circle id="Ellipse_2" data-name="Ellipse 2" cx="0.677" cy="0.677" r="0.677" transform="translate(37.935 39.29)" fill="#ffaf3f"/>
      <circle id="Ellipse_3" data-name="Ellipse 3" cx="0.677" cy="0.677" r="0.677" transform="translate(5.419 39.29)" fill="#ffaf3f"/>
      <circle id="Ellipse_4" data-name="Ellipse 4" cx="0.677" cy="0.677" r="0.677" transform="translate(2.71 23.71)" fill="#ffaf3f"/>
      <rect id="Rectangle_8" data-name="Rectangle 8" width="5.419" height="2.032" rx="1.016" transform="translate(33.194 22.355)" fill="#d4cbcc"/>
      <rect id="Rectangle_9" data-name="Rectangle 9" width="5.419" height="2.032" rx="1.016" transform="translate(6.097 22.355)" fill="#d4cbcc"/>
      <rect id="Rectangle_10" data-name="Rectangle 10" width="3.387" height="2.032" rx="1.016" transform="translate(29.129 22.355)" fill="#d4cbcc"/>
      <rect id="Rectangle_11" data-name="Rectangle 11" width="3.387" height="2.032" rx="1.016" transform="translate(12.194 22.355)" fill="#d4cbcc"/>
      <path id="Tracé_73" data-name="Tracé 73" d="M20.323,2.032h4.065V4.065H20.323Z" fill="#e0d7d8"/>
    </g>
  </g>
</svg>
