<svg xmlns="http://www.w3.org/2000/svg" xmlns:xlink="http://www.w3.org/1999/xlink" width="58" height="42" viewBox="0 0 58 42">
  <defs>
    <clipPath id="clip-path">
      <rect id="Rectangle_4" data-name="Rectangle 4" width="58" height="42" transform="translate(337 438)" fill="#beb38a"/>
    </clipPath>
  </defs>
  <g id="Groupe_de_masques_1" data-name="Groupe de masques 1" transform="translate(-337 -438)" clip-path="url(#clip-path)">
    <g id="treasure-chest" transform="translate(340.79 434.038)">
      <path id="Tracé_3" data-name="Tracé 3" d="M39.623,15.057H11.094a18.874,18.874,0,0,0-3.17,10.469v2.21l.713,14.258L12.064,42h28.21l1.806-.009.713-14.255v-2.21a18.874,18.874,0,0,0-3.17-10.469Z" fill="#8c421c"/>
      <path id="Tracé_4" data-name="Tracé 4" d="M16.642,15.057a11.887,11.887,0,0,0-2.377,7.132V42h3.17V22.189a11.887,11.887,0,0,1,2.377-7.132Z" fill="#fdb62f"/>
      <path id="Tracé_5" data-name="Tracé 5" d="M34.075,15.057h-3.17a11.887,11.887,0,0,1,2.377,7.132V42h3.17V22.189A11.887,11.887,0,0,0,34.075,15.057Z" fill="#fdb62f"/>
      <path id="Tracé_6" data-name="Tracé 6" d="M14.264,30.906h3.17v1.585h-3.17Z" fill="#db9e29"/>
      <path id="Tracé_7" data-name="Tracé 7" d="M33.283,30.906h3.17v1.585h-3.17Z" fill="#db9e29"/>
      <g id="Groupe_9" data-name="Groupe 9">
        <path id="Tracé_8" data-name="Tracé 8" d="M2.377,9.509H3.962v1.585H2.377Z" fill="#fdb62f"/>
        <path id="Tracé_9" data-name="Tracé 9" d="M3.962,11.094H5.547v1.585H3.962Z" fill="#fdb62f"/>
        <path id="Tracé_10" data-name="Tracé 10" d="M5.547,9.509H7.132v1.585H5.547Z" fill="#fdb62f"/>
        <path id="Tracé_11" data-name="Tracé 11" d="M3.962,7.925H5.547V9.509H3.962Z" fill="#fdb62f"/>
        <path id="Tracé_12" data-name="Tracé 12" d="M36.453,9.509h1.585v1.585H36.453Z" fill="#fdb62f"/>
        <path id="Tracé_13" data-name="Tracé 13" d="M38.038,11.094h1.585v1.585H38.038Z" fill="#fdb62f"/>
        <path id="Tracé_14" data-name="Tracé 14" d="M39.623,9.509h1.585v1.585H39.623Z" fill="#fdb62f"/>
        <path id="Tracé_15" data-name="Tracé 15" d="M38.038,7.925h1.585V9.509H38.038Z" fill="#fdb62f"/>
        <path id="Tracé_16" data-name="Tracé 16" d="M43.585,7.132H45.17V8.717H43.585Z" fill="#fdb62f"/>
        <path id="Tracé_17" data-name="Tracé 17" d="M41.208,3.962h1.585V5.547H41.208Z" fill="#fdb62f"/>
        <path id="Tracé_18" data-name="Tracé 18" d="M9.509,11.094h1.585v1.585H9.509Z" fill="#fdb62f"/>
        <path id="Tracé_19" data-name="Tracé 19" d="M9.509,4.755h1.585V6.34H9.509Z" fill="#fdb62f"/>
      </g>
      <path id="Tracé_20" data-name="Tracé 20" d="M8.638,41.994l.079,1.591,14.264,2.377,2.377-1.585,2.377,1.585L42,43.585,42.079,42Z" fill="#783918"/>
      <path id="Tracé_21" data-name="Tracé 21" d="M47.622,22a7.926,7.926,0,0,0-7.864-6.942h-.136a18.874,18.874,0,0,1,3.17,10.469v2.21L42,43.585v2.377h4.755L47.839,33.5a54.616,54.616,0,0,0,.195-5.76A54.313,54.313,0,0,0,47.622,22Z" fill="#fdb62f"/>
      <path id="Tracé_22" data-name="Tracé 22" d="M11.094,15.057h-.136A7.925,7.925,0,0,0,3.095,22a54.578,54.578,0,0,0-.216,11.5L3.962,45.962H8.717V43.585L7.925,27.736v-2.21a18.874,18.874,0,0,1,3.17-10.469Z" fill="#fdb62f"/>
      <path id="Tracé_23" data-name="Tracé 23" d="M8.6,41.208H3.549l.414,4.755H8.717V43.585Z" fill="#edab2c"/>
      <path id="Tracé_24" data-name="Tracé 24" d="M42.119,41.208,42,43.585v2.377h4.755l.414-4.755Z" fill="#edab2c"/>
      <path id="Tracé_25" data-name="Tracé 25" d="M5.547,25.358a.792.792,0,1,1,.792-.792A.793.793,0,0,1,5.547,25.358Z" fill="#30160a"/>
      <path id="Tracé_26" data-name="Tracé 26" d="M5.547,31.7a.792.792,0,1,1,.792-.792A.793.793,0,0,1,5.547,31.7Z" fill="#30160a"/>
      <path id="Tracé_27" data-name="Tracé 27" d="M5.547,38.038a.792.792,0,1,1,.792-.792A.793.793,0,0,1,5.547,38.038Z" fill="#30160a"/>
      <path id="Tracé_28" data-name="Tracé 28" d="M45.17,25.358a.792.792,0,1,1,.792-.792A.793.793,0,0,1,45.17,25.358Z" fill="#30160a"/>
      <path id="Tracé_29" data-name="Tracé 29" d="M45.17,31.7a.792.792,0,1,1,.792-.792A.793.793,0,0,1,45.17,31.7Z" fill="#30160a"/>
      <path id="Tracé_30" data-name="Tracé 30" d="M45.17,38.038a.792.792,0,1,1,.792-.792A.793.793,0,0,1,45.17,38.038Z" fill="#30160a"/>
      <path id="Tracé_31" data-name="Tracé 31" d="M2.683,26.943H48.035v1.585H2.683Z" opacity="0.16"/>
      <path id="Tracé_32" data-name="Tracé 32" d="M27.222,32.11,26.6,30.652a3.17,3.17,0,1,0-2.484,0L23.5,32.11a4.754,4.754,0,1,1,3.727,0Z" fill="#30160a"/>
      <path id="Tracé_33" data-name="Tracé 33" d="M28.528,32.491h-.792V31.7a2.377,2.377,0,1,0-4.755,0v.792h-.792a.793.793,0,0,0-.792.792v6.34a.793.793,0,0,0,.792.792h6.34a.793.793,0,0,0,.792-.792v-6.34A.793.793,0,0,0,28.528,32.491ZM24.566,31.7a.792.792,0,1,1,1.585,0v.792H24.566Z" fill="#fdb62f"/>
      <path id="Tracé_34" data-name="Tracé 34" d="M26.151,35.66a.792.792,0,0,0-1.585,0,.779.779,0,0,0,.372.655v2.5h.842v-2.5A.782.782,0,0,0,26.151,35.66Z" fill="#30160a"/>
    </g>
  </g>
</svg>
