<svg id="question" xmlns="http://www.w3.org/2000/svg" width="29" height="29" viewBox="0 0 29 29">
  <g id="Groupe_29" data-name="Groupe 29">
    <g id="Groupe_28" data-name="Groupe 28">
      <path id="Tracé_237" data-name="Tracé 237" d="M14.5,0A14.5,14.5,0,1,0,29,14.5,14.492,14.492,0,0,0,14.5,0Zm0,26.977A12.477,12.477,0,1,1,26.977,14.5,12.491,12.491,0,0,1,14.5,26.977Z" fill="#e6ddbd"/>
    </g>
  </g>
  <g id="Groupe_31" data-name="Groupe 31">
    <g id="Groupe_30" data-name="Groupe 30">
      <path id="Tracé_238" data-name="Tracé 238" d="M14.071,18.347a1.47,1.47,0,0,0,0,2.939,1.47,1.47,0,0,0,0-2.939Z" fill="#e6ddbd"/>
    </g>
  </g>
  <g id="Groupe_33" data-name="Groupe 33">
    <g id="Groupe_32" data-name="Groupe 32">
      <path id="Tracé_239" data-name="Tracé 239" d="M14.319,7.22c-2.577,0-3.76,1.527-3.76,2.558A1.1,1.1,0,0,0,11.7,10.865c1.031,0,.611-1.47,2.558-1.47.954,0,1.718.42,1.718,1.3,0,1.031-1.069,1.622-1.7,2.157A3.494,3.494,0,0,0,13,15.752c0,.992.267,1.279,1.05,1.279.935,0,1.126-.42,1.126-.783a2.4,2.4,0,0,1,1.069-2.386c.515-.4,2.138-1.7,2.138-3.493S16.762,7.22,14.319,7.22Z" fill="#e6ddbd"/>
    </g>
  </g>
</svg>
